<svg width="44" height="44" viewBox="0 0 44 44" fill="none" xmlns="http://www.w3.org/2000/svg">
<g clip-path="url(#clip0_21_1018)">
<path d="M27.5 6.05344V1.375" stroke="#212121" stroke-width="1.5" stroke-linecap="round" stroke-linejoin="round"/>
<path d="M16.5 1.375V6.05344" stroke="#212121" stroke-width="1.5" stroke-linecap="round" stroke-linejoin="round"/>
<path d="M34.3751 38.5C34.6025 38.4999 34.8264 38.4434 35.0267 38.3355C35.2269 38.2276 35.3973 38.0717 35.5225 37.8818C35.6476 37.6919 35.7238 37.4739 35.744 37.2473C35.7642 37.0208 35.7279 36.7927 35.6384 36.5836L27.5001 19.25L31.4291 13.0832C31.5576 12.8693 31.6255 12.6245 31.6255 12.375C31.6255 12.1255 31.5576 11.8808 31.4291 11.6669L27.5001 6.05347L26.297 7.56253C25.7817 8.20738 25.128 8.72799 24.3841 9.08577C23.6403 9.44355 22.8255 9.62933 22.0001 9.62933C21.1747 9.62933 20.3599 9.44355 19.616 9.08577C18.8722 8.72799 18.2184 8.20738 17.7032 7.56253L16.5001 6.05519L12.571 11.6669C12.4425 11.8808 12.3747 12.1255 12.3747 12.375C12.3747 12.6245 12.4425 12.8693 12.571 13.0832L16.5001 19.25L8.36352 36.5836C8.27401 36.7926 8.23771 37.0205 8.25785 37.2469C8.278 37.4733 8.35396 37.6912 8.47896 37.8811C8.60395 38.0709 8.77406 38.2269 8.97407 38.3349C9.17409 38.4429 9.39776 38.4996 9.62508 38.5H34.3751Z" stroke="#212121" stroke-width="1.5" stroke-linecap="round" stroke-linejoin="round"/>
<path d="M16.5 19.25H27.5" stroke="#212121" stroke-width="1.5" stroke-linecap="round" stroke-linejoin="round"/>
</g>
<defs>
<clipPath id="clip0_21_1018">
<rect width="44" height="44" fill="white"/>
</clipPath>
</defs>
</svg>
