<svg width="33" height="22" viewBox="0 0 33 22" fill="none" xmlns="http://www.w3.org/2000/svg">
<rect x="0.25" y="0.25" width="31.5833" height="21.5" rx="1.75" fill="white" stroke="#D9D9D9" stroke-width="0.5"/>
<path fill-rule="evenodd" clip-rule="evenodd" d="M16.2708 15.7273C15.1785 16.6699 13.7616 17.239 12.2134 17.239C8.75877 17.239 5.95825 14.4059 5.95825 10.9112C5.95825 7.41652 8.75877 4.5835 12.2134 4.5835C13.7616 4.5835 15.1785 5.15254 16.2708 6.09515C17.3631 5.15254 18.78 4.5835 20.3282 4.5835C23.7828 4.5835 26.5834 7.41652 26.5834 10.9112C26.5834 14.4059 23.7828 17.239 20.3282 17.239C18.78 17.239 17.3631 16.6699 16.2708 15.7273Z" fill="#ED0006"/>
<path fill-rule="evenodd" clip-rule="evenodd" d="M16.2706 15.7275C17.6156 14.5668 18.4685 12.8398 18.4685 10.9112C18.4685 8.98267 17.6156 7.25562 16.2706 6.09499C17.3629 5.15247 18.7797 4.5835 20.3279 4.5835C23.7825 4.5835 26.583 7.41652 26.583 10.9112C26.583 14.4059 23.7825 17.239 20.3279 17.239C18.7797 17.239 17.3629 16.67 16.2706 15.7275Z" fill="#F9A000"/>
<path fill-rule="evenodd" clip-rule="evenodd" d="M16.2708 15.7274C17.6158 14.5668 18.4686 12.8398 18.4686 10.9113C18.4686 8.98283 17.6158 7.25584 16.2708 6.09521C14.9259 7.25584 14.0731 8.98283 14.0731 10.9113C14.0731 12.8398 14.9259 14.5668 16.2708 15.7274Z" fill="#FF5E00"/>
</svg>
