<svg width="33" height="22" viewBox="0 0 33 22" fill="none" xmlns="http://www.w3.org/2000/svg">
<rect x="0.25" y="0.25" width="31.5833" height="21.5" rx="1.75" fill="white" stroke="#D9D9D9" stroke-width="0.5"/>
<path d="M13.5062 21.5416L31.6104 16.2708C31.6104 19.1818 29.2506 21.5416 26.3396 21.5416H13.5062Z" fill="#FD6020"/>
<path fill-rule="evenodd" clip-rule="evenodd" d="M28.1743 8.80983C29.1703 8.80983 29.7181 9.25308 29.7181 10.0903C29.7679 10.7306 29.3197 11.2723 28.7221 11.3708L30.0667 13.1931H29.0209L27.8755 11.4201H27.7759V13.1931H26.9292V8.80983H28.1743ZM27.7758 10.8291H28.0248C28.5726 10.8291 28.8216 10.5829 28.8216 10.1396C28.8216 9.74562 28.5726 9.49937 28.0248 9.49937H27.7758V10.8291ZM23.9911 13.1931H26.3815V12.4543H24.8377V11.2723H26.3317V10.5336H24.8377V9.54857H26.3815V8.80983H23.9911V13.1931ZM21.5009 11.7648L20.3555 8.80983H19.4591L21.3017 13.2916H21.7499L23.5925 8.80983H22.6961L21.5009 11.7648ZM11.3914 11.0261C11.3914 12.2573 12.3874 13.2916 13.6325 13.2916C14.0309 13.2916 14.3795 13.1931 14.7281 13.0453V12.0603C14.4791 12.3558 14.1305 12.5528 13.7321 12.5528C12.9353 12.5528 12.2878 11.9618 12.2878 11.1739V11.0754C12.238 10.2874 12.8855 9.59786 13.6823 9.54861C14.0807 9.54861 14.4791 9.74561 14.7281 10.0411V9.05612C14.4293 8.85912 14.0309 8.80987 13.6823 8.80987C12.3874 8.71137 11.3914 9.74561 11.3914 11.0261ZM9.84777 10.4844C9.34977 10.2874 9.20037 10.1889 9.20037 9.94261C9.25017 9.64711 9.49917 9.40086 9.79797 9.45011C10.047 9.45011 10.296 9.59786 10.4952 9.79486L10.9434 9.20386C10.5948 8.90836 10.1466 8.71136 9.69837 8.71136C9.00116 8.66211 8.40356 9.20386 8.35376 9.89336V9.94261C8.35376 10.5336 8.60276 10.8783 9.39957 11.1246C9.59877 11.1738 9.79797 11.2723 9.99717 11.3708C10.1466 11.4693 10.2462 11.6171 10.2462 11.8141C10.2462 12.1588 9.94737 12.4543 9.64857 12.4543H9.59877C9.20037 12.4543 8.85176 12.2081 8.70236 11.8633L8.15456 12.4051C8.45336 12.9468 9.05096 13.2423 9.64857 13.2423C10.4454 13.2916 11.0928 12.7006 11.1426 11.9126V11.7648C11.0928 11.1738 10.8438 10.8783 9.84777 10.4844ZM6.95922 13.1931H7.80582V8.80983H6.95922V13.1931ZM3.02502 8.80983H4.27004H4.51904C5.71425 8.85908 6.66046 9.84407 6.61066 11.0261C6.61066 11.6663 6.31186 12.2573 5.81385 12.7006C5.36565 13.0453 4.81784 13.2423 4.27004 13.1931H3.02502V8.80983ZM4.12054 12.4543C4.51894 12.5035 4.96714 12.3558 5.26595 12.1095C5.56475 11.814 5.71415 11.42 5.71415 10.9768C5.71415 10.5828 5.56475 10.1888 5.26595 9.89328C4.96714 9.64703 4.51894 9.49929 4.12054 9.54854H3.87153V12.4543H4.12054Z" fill="black"/>
<path fill-rule="evenodd" clip-rule="evenodd" d="M17.268 8.70825C16.023 8.70825 14.9772 9.69325 14.9772 10.9737C14.9772 12.205 15.9732 13.2392 17.268 13.2885C18.5628 13.3377 19.5588 12.3035 19.6086 11.023C19.5588 9.7425 18.5628 8.70825 17.268 8.70825V8.70825Z" fill="#FD6020"/>
</svg>
