<svg width="33" height="22" viewBox="0 0 33 22" fill="none" xmlns="http://www.w3.org/2000/svg">
<rect x="0.25" y="0.25" width="31.5833" height="21.5" rx="1.75" fill="white" stroke="#D9D9D9" stroke-width="0.5"/>
<path fill-rule="evenodd" clip-rule="evenodd" d="M9.73994 14.9035H7.79631L6.33883 9.34313C6.26965 9.08735 6.12277 8.86123 5.9067 8.75466C5.36749 8.48683 4.77331 8.27368 4.12512 8.16618V7.95211H7.25615C7.68828 7.95211 8.01238 8.27368 8.06639 8.64715L8.82262 12.658L10.7653 7.95211H12.6549L9.73994 14.9035ZM13.7351 14.9035H11.8995L13.411 7.95211H15.2466L13.7351 14.9035ZM17.6215 9.87782C17.6755 9.50342 17.9996 9.28934 18.3777 9.28934C18.9719 9.23559 19.6191 9.34309 20.1593 9.60999L20.4834 8.11332C19.9432 7.89925 19.3491 7.79175 18.8098 7.79175C17.0283 7.79175 15.7319 8.75462 15.7319 10.091C15.7319 11.1076 16.6502 11.6414 17.2983 11.963C17.9996 12.2836 18.2697 12.4977 18.2157 12.8183C18.2157 13.2993 17.6755 13.5134 17.1363 13.5134C16.4881 13.5134 15.8399 13.3531 15.2467 13.0852L14.9226 14.5828C15.5708 14.8497 16.272 14.9572 16.9202 14.9572C18.9179 15.0101 20.1593 14.0481 20.1593 12.6043C20.1593 10.786 17.6215 10.6794 17.6215 9.87782ZM26.5835 14.9035L25.1261 7.95211H23.5605C23.2364 7.95211 22.9123 8.16618 22.8043 8.48683L20.1054 14.9035H21.995L22.3722 13.8878H24.6939L24.91 14.9035H26.5835ZM23.8304 9.82409L24.3697 12.444H22.8582L23.8304 9.82409Z" fill="#172B85"/>
</svg>
