<svg width="33" height="22" viewBox="0 0 33 22" fill="none" xmlns="http://www.w3.org/2000/svg">
<rect x="0.25" y="0.25" width="31.5833" height="21.5" rx="1.75" fill="#1F72CD" stroke="#D9D9D9" stroke-width="0.5"/>
<path fill-rule="evenodd" clip-rule="evenodd" d="M5.75166 7.79175L2.74988 14.4346H6.34343L6.78893 13.3754H7.80724L8.25273 14.4346H12.2082V13.6262L12.5607 14.4346H14.6068L14.9592 13.6091V14.4346H23.1856L24.1859 13.403L25.1225 14.4346L29.3477 14.4431L26.3365 11.1317L29.3477 7.79175H25.188L24.2143 8.80432L23.3072 7.79175H14.358L13.5895 9.50632L12.803 7.79175H9.21697V8.57262L8.81804 7.79175H5.75166ZM18.0358 8.73499H22.7598L24.2046 10.2957L25.6961 8.73499H27.1409L24.9456 11.1307L27.1409 13.4989H25.6305L24.1857 11.92L22.6867 13.4989H18.0358V8.73499ZM19.2024 10.5922V9.72204V9.72121H22.15L23.4362 11.1128L22.0931 12.512H19.2024V11.5621H21.7796V10.5922H19.2024ZM6.4473 8.73499H8.19896L10.19 13.2395V8.73499H12.1089L13.6468 11.9647L15.0641 8.73499H16.9734V13.5017H15.8117L15.8022 9.76653L14.1084 13.5017H13.0692L11.366 9.76653V13.5017H8.97598L8.52287 12.433H6.07494L5.62277 13.5007H4.34223L6.4473 8.73499ZM6.49262 11.4451L7.29912 9.54147L8.10468 11.4451H6.49262Z" fill="white"/>
</svg>
