<svg width="33" height="22" viewBox="0 0 33 22" fill="none" xmlns="http://www.w3.org/2000/svg">
<rect x="0.25" y="0.25" width="31.5833" height="21.5" rx="1.75" fill="white" stroke="#D9D9D9" stroke-width="0.5"/>
<path d="M17.4578 17.8749C21.0305 17.8921 24.2915 14.9344 24.2915 11.3363C24.2915 7.40196 21.0305 4.68213 17.4578 4.68359H14.3829C10.7676 4.68213 7.7915 7.40269 7.7915 11.3363C7.7915 14.9351 10.7676 17.8921 14.3829 17.8749H17.4578Z" fill="#0079BE"/>
<path d="M14.3975 5.22876C11.0935 5.22986 8.41663 7.93207 8.41553 11.2672C8.41663 14.602 11.0935 17.3043 14.3975 17.3054C17.7018 17.3043 20.3798 14.602 20.3801 11.2672C20.3798 7.93207 17.7022 5.22986 14.3975 5.22876ZM10.6059 11.2672C10.6052 10.4961 10.8372 9.74273 11.2715 9.10552C11.7057 8.46832 12.3222 7.97695 13.0401 7.69563V14.8385C12.3221 14.5574 11.7056 14.0661 11.2713 13.4289C10.837 12.7918 10.6051 12.0383 10.6059 11.2672ZM15.7544 14.84V7.69526C16.473 7.97618 17.0899 8.46751 17.5245 9.10493C17.9591 9.74234 18.1911 10.4961 18.1901 11.2676C18.1909 12.0391 17.9589 12.7928 17.5243 13.4302C17.0897 14.0675 16.4729 14.5589 15.7544 14.84Z" fill="white"/>
<path d="M17.4578 17.8749C21.0305 17.8921 24.2915 14.9344 24.2915 11.3363C24.2915 7.40196 21.0305 4.68213 17.4578 4.68359H14.3829C10.7676 4.68213 7.7915 7.40269 7.7915 11.3363C7.7915 14.9351 10.7676 17.8921 14.3829 17.8749H17.4578Z" fill="#0079BE"/>
<path d="M14.3975 5.22876C11.0935 5.22986 8.41663 7.93207 8.41553 11.2672C8.41663 14.602 11.0935 17.3043 14.3975 17.3054C17.7018 17.3043 20.3798 14.602 20.3801 11.2672C20.3798 7.93207 17.7022 5.22986 14.3975 5.22876ZM10.6059 11.2672C10.6052 10.4961 10.8372 9.74273 11.2715 9.10552C11.7057 8.46832 12.3222 7.97695 13.0401 7.69563V14.8385C12.3221 14.5574 11.7056 14.0661 11.2713 13.4289C10.837 12.7918 10.6051 12.0383 10.6059 11.2672ZM15.7544 14.84V7.69526C16.473 7.97618 17.0899 8.46751 17.5245 9.10493C17.9591 9.74234 18.1911 10.4961 18.1901 11.2676C18.1909 12.0391 17.9589 12.7928 17.5243 13.4302C17.0897 14.0675 16.4729 14.5589 15.7544 14.84Z" fill="white"/>
</svg>
