<svg width="33" height="22" viewBox="0 0 33 22" fill="none" xmlns="http://www.w3.org/2000/svg">
<rect x="0.25" y="0.25" width="31.5833" height="21.5" rx="1.75" fill="white" stroke="#D9D9D9" stroke-width="0.5"/>
<path fill-rule="evenodd" clip-rule="evenodd" d="M7.65008 8.18838C8.08095 8.22473 8.51182 7.9703 8.78112 7.64773C9.04592 7.31607 9.22096 6.87083 9.17608 6.4165C8.79458 6.43468 8.32332 6.67093 8.05402 7.00259C7.80717 7.28881 7.59622 7.75223 7.65008 8.18838ZM12.7757 14.0401V6.95717H15.4013C16.7567 6.95717 17.7037 7.90217 17.7037 9.28332C17.7037 10.6645 16.7388 11.6186 15.3654 11.6186H13.8618V14.0401H12.7757ZM9.17184 8.2747C8.79225 8.25258 8.44589 8.39025 8.16613 8.50145C7.9861 8.57301 7.83364 8.63361 7.71765 8.63361C7.58749 8.63361 7.42874 8.56977 7.2505 8.4981C7.01695 8.40418 6.74993 8.2968 6.46992 8.30195C5.82811 8.31104 5.23117 8.67905 4.90353 9.26513C4.23029 10.4373 4.72849 12.1728 5.37928 13.1269C5.69795 13.5994 6.07945 14.1173 6.58213 14.0992C6.80328 14.0907 6.96236 14.0224 7.127 13.9517C7.31654 13.8703 7.51344 13.7857 7.82088 13.7857C8.11767 13.7857 8.30596 13.8681 8.4867 13.9471C8.65856 14.0223 8.82361 14.0945 9.06861 14.0901C9.58925 14.081 9.91689 13.6176 10.2356 13.1451C10.5794 12.638 10.7306 12.143 10.7535 12.0679L10.7562 12.0592C10.7556 12.0587 10.7514 12.0567 10.7439 12.0533L10.7439 12.0532C10.6289 12 9.75028 11.5928 9.74185 10.5009C9.73339 9.58442 10.4388 9.12007 10.5498 9.04698C10.5566 9.04253 10.5611 9.03953 10.5632 9.03797C10.1144 8.36556 9.41421 8.29287 9.17184 8.2747ZM19.6882 14.0946C20.3704 14.0946 21.0032 13.7448 21.2905 13.1905H21.3129V14.0401H22.3183V10.5145C22.3183 9.49228 21.5104 8.83351 20.2672 8.83351C19.1137 8.83351 18.2609 9.50137 18.2295 10.4191H19.2079C19.2887 9.98296 19.6882 9.69673 20.2357 9.69673C20.9 9.69673 21.2725 10.0102 21.2725 10.5872V10.9779L19.9171 11.0597C18.6559 11.1369 17.9737 11.6594 17.9737 12.5681C17.9737 13.4858 18.6783 14.0946 19.6882 14.0946ZM19.9794 13.2541C19.4004 13.2541 19.0324 12.9724 19.0324 12.5408C19.0324 12.0956 19.387 11.8366 20.0647 11.7957L21.272 11.7185V12.1183C21.272 12.7816 20.7155 13.2541 19.9794 13.2541ZM25.6524 14.3172C25.217 15.5575 24.7188 15.9664 23.6596 15.9664C23.5788 15.9664 23.3095 15.9574 23.2467 15.9392V15.0896C23.314 15.0987 23.4801 15.1078 23.5654 15.1078C24.0456 15.1078 24.3149 14.9033 24.481 14.3718L24.5797 14.0583L22.7395 8.90166H23.875L25.1542 13.086H25.1766L26.4558 8.90166H27.5599L25.6524 14.3172ZM13.8622 7.88395H15.1144C16.0569 7.88395 16.5955 8.3928 16.5955 9.28782C16.5955 10.1828 16.0569 10.6962 15.1099 10.6962H13.8622V7.88395Z" fill="black"/>
</svg>
