<svg width="33" height="22" viewBox="0 0 33 22" fill="none" xmlns="http://www.w3.org/2000/svg">
<rect x="0.25" y="0.25" width="31.5833" height="21.5" rx="1.75" fill="white" stroke="#D9D9D9" stroke-width="0.5"/>
<path fill-rule="evenodd" clip-rule="evenodd" d="M15.1523 14.4451V11.6759H16.5815C17.1672 11.6759 17.6615 11.4796 18.0645 11.0926L18.1612 10.9945C18.8973 10.1932 18.849 8.94483 18.0645 8.20347C17.6723 7.81098 17.135 7.59838 16.5815 7.60929H14.2872V14.4451H15.1523ZM15.1521 10.8364V8.4488H16.603C16.9147 8.4488 17.2103 8.56872 17.4306 8.78677C17.8981 9.24467 17.9089 10.0078 17.4575 10.4821C17.2371 10.7165 16.9255 10.8473 16.603 10.8364H15.1521ZM22.1964 10.1333C21.8257 9.78983 21.3206 9.61539 20.6812 9.61539C19.8591 9.61539 19.2412 9.92066 18.8328 10.5257L19.5958 11.0109C19.8752 10.5966 20.2567 10.3895 20.7403 10.3895C21.0466 10.3895 21.3421 10.5039 21.5731 10.7111C21.7988 10.9073 21.9278 11.1908 21.9278 11.4906V11.6923C21.5946 11.507 21.1755 11.4088 20.6597 11.4088C20.0579 11.4088 19.5743 11.5506 19.2143 11.8395C18.8543 12.1284 18.6717 12.51 18.6717 12.9951C18.6609 13.4367 18.849 13.8564 19.1821 14.1399C19.5206 14.4452 19.9505 14.5978 20.4555 14.5978C21.0519 14.5978 21.5248 14.3307 21.8848 13.7965H21.9224V14.4452H22.7498V11.5615C22.7498 10.9564 22.5671 10.4767 22.1964 10.1333ZM19.8487 13.5839C19.6714 13.453 19.5639 13.2405 19.5639 13.0115C19.5639 12.7553 19.6821 12.5427 19.9132 12.3737C20.1496 12.2047 20.4452 12.1175 20.7945 12.1175C21.2782 12.1121 21.6544 12.2211 21.923 12.4391C21.923 12.8098 21.778 13.1314 21.4931 13.404C21.2352 13.6656 20.8859 13.8128 20.5204 13.8128C20.2786 13.8183 20.0422 13.7365 19.8487 13.5839ZM24.6091 16.5002L27.4999 9.768H26.5596L25.2217 13.1259H25.2056L23.8354 9.768H22.8951L24.7918 14.1453L23.7172 16.5002H24.6091Z" fill="#3C4043"/>
<path d="M12.1658 11.0759C12.1658 10.8088 12.1443 10.5417 12.1013 10.28H8.453V11.79H10.5431C10.4572 12.2752 10.1778 12.7113 9.76941 12.9838V13.965H11.016C11.7467 13.2836 12.1658 12.2752 12.1658 11.0759Z" fill="#4285F4"/>
<path d="M8.45331 14.9138C9.49569 14.9138 10.3769 14.5649 11.0163 13.9653L9.76972 12.9841C9.42047 13.2239 8.9745 13.3602 8.45331 13.3602C7.44317 13.3602 6.58885 12.6679 6.28258 11.7412H4.99841V12.7551C5.65393 14.0798 6.99183 14.9138 8.45331 14.9138Z" fill="#34A853"/>
<path d="M6.28252 11.7413C6.1213 11.2561 6.1213 10.7274 6.28252 10.2367V9.22827H4.99815C4.44463 10.3349 4.44463 11.6432 4.99815 12.7497L6.28252 11.7413Z" fill="#FBBC04"/>
<path d="M8.45331 8.61755C9.00674 8.60665 9.53868 8.81924 9.93629 9.20628L11.0431 8.08333C10.3393 7.41829 9.4151 7.05306 8.45331 7.06396C6.99183 7.06396 5.65393 7.90344 4.99841 9.22808L6.28258 10.242C6.58885 9.30985 7.44317 8.61755 8.45331 8.61755Z" fill="#EA4335"/>
</svg>
