<svg width="33" height="22" viewBox="0 0 33 22" fill="none" xmlns="http://www.w3.org/2000/svg">
<rect x="0.25" y="0.25" width="31.5833" height="21.5" rx="1.75" fill="white" stroke="#D9D9D9" stroke-width="0.5"/>
<path d="M9.92547 4.58398H14.9816C15.6874 4.58398 16.1264 5.15926 15.9617 5.8674L13.6077 15.974C13.4416 16.6796 12.735 17.2554 12.0287 17.2554H6.97303C6.26823 17.2554 5.82827 16.6796 5.99291 15.974L8.34789 5.8674C8.51253 5.15926 9.21882 4.58398 9.92547 4.58398Z" fill="#E21836"/>
<path d="M14.5605 4.58325H20.3749C21.0806 4.58325 20.7624 5.15853 20.5964 5.86666L18.2428 15.9732C18.0776 16.6789 18.1292 17.2547 17.422 17.2547H11.6076C10.9005 17.2547 10.4628 16.6789 10.629 15.9732L12.9825 5.86666C13.1496 5.15853 13.8544 4.58325 14.5605 4.58325Z" fill="#00447C"/>
<path d="M20.1445 4.58325H25.2007C25.9074 4.58325 26.3464 5.15853 26.1804 5.86666L23.8268 15.9732C23.6607 16.6789 22.9535 17.2547 22.2469 17.2547H17.1931C16.4859 17.2547 16.0473 16.6789 16.2129 15.9732L18.5669 5.86666C18.7316 5.15853 19.4374 4.58325 20.1445 4.58325Z" fill="#007B84"/>
<path d="M11.2457 7.82204C10.7258 7.82734 10.5722 7.82204 10.5232 7.81046C10.5043 7.90005 10.1535 9.51855 10.1525 9.51991C10.0769 9.84735 10.022 10.0808 9.83525 10.2315C9.72927 10.3191 9.60553 10.3614 9.46208 10.3614C9.2315 10.3614 9.09717 10.2469 9.07462 10.0297L9.07031 9.95519C9.07031 9.95519 9.14055 9.51658 9.14055 9.51412C9.14055 9.51412 9.50879 8.03919 9.57472 7.84423C9.57818 7.83314 9.57916 7.82734 9.58002 7.82204C8.86327 7.82833 8.73621 7.82204 8.72746 7.81046C8.72265 7.82636 8.7049 7.9178 8.7049 7.9178L8.3289 9.58017L8.29661 9.72116L8.23413 10.1823C8.23413 10.3191 8.261 10.4308 8.31448 10.5252C8.48578 10.8245 8.97443 10.8694 9.25085 10.8694C9.60701 10.8694 9.94111 10.7937 10.1669 10.6556C10.5588 10.424 10.6613 10.062 10.7528 9.74038L10.7952 9.57537C10.7952 9.57537 11.1745 8.0435 11.2389 7.84423C11.2414 7.83314 11.2424 7.82734 11.2457 7.82204ZM12.5364 9.05781C12.4449 9.05781 12.2778 9.07999 12.1277 9.15357C12.0732 9.18154 12.0217 9.21383 11.9674 9.246L12.0164 9.0689L11.9896 9.03908C11.6712 9.10353 11.6 9.11216 11.3059 9.15357L11.2813 9.16996C11.2472 9.45304 11.2168 9.66587 11.0903 10.2223C11.0421 10.4274 10.9921 10.6344 10.9419 10.839L10.9555 10.865C11.2568 10.8491 11.3482 10.8491 11.6101 10.8534L11.6313 10.8304C11.6646 10.6599 11.6689 10.62 11.7426 10.2748C11.7772 10.1111 11.8494 9.75152 11.8851 9.62348C11.9505 9.59316 12.0151 9.56334 12.0767 9.56334C12.2235 9.56334 12.2056 9.69138 12.1999 9.7424C12.1936 9.82806 12.1402 10.1078 12.0853 10.348L12.0487 10.503C12.0232 10.6175 11.9952 10.7288 11.9697 10.8423L11.9808 10.865C12.2778 10.8491 12.3684 10.8491 12.622 10.8534L12.6518 10.8304C12.6977 10.5642 12.7111 10.4929 12.7925 10.1053L12.8334 9.92726C12.9129 9.57874 12.9528 9.40202 12.8927 9.25807C12.8291 9.09675 12.6765 9.05781 12.5364 9.05781ZM13.9782 9.42271C13.8203 9.45303 13.7196 9.47324 13.6195 9.4863C13.5203 9.5022 13.4236 9.51662 13.271 9.53781L13.2589 9.54878L13.2479 9.55753C13.232 9.67116 13.2209 9.76938 13.1998 9.88486C13.1819 10.0043 13.1544 10.14 13.1097 10.3349C13.0751 10.4842 13.0572 10.5362 13.0375 10.5887C13.0183 10.6412 12.9971 10.6922 12.9581 10.839L12.9672 10.8525L12.9749 10.865C13.1175 10.8582 13.2108 10.8534 13.3066 10.8525C13.4024 10.8491 13.5016 10.8525 13.6552 10.8534L13.6686 10.8424L13.683 10.8303C13.7052 10.698 13.7085 10.6624 13.7221 10.5978C13.7355 10.5285 13.7587 10.4327 13.8155 10.1766C13.8424 10.0563 13.8723 9.93637 13.9002 9.81362C13.9291 9.69137 13.9594 9.57097 13.9883 9.45068L13.984 9.43614L13.9782 9.42271ZM13.9815 8.93071C13.8381 8.84605 13.5863 8.87292 13.4168 8.98987C13.2479 9.10448 13.2287 9.26716 13.3716 9.35293C13.5126 9.43526 13.7654 9.41073 13.9333 9.29279C14.1019 9.17571 14.123 9.01452 13.9815 8.93071ZM14.8491 10.8915C15.1393 10.8915 15.4368 10.8115 15.6607 10.5742C15.833 10.3817 15.912 10.0953 15.9394 9.97732C16.0285 9.58641 15.9591 9.40389 15.872 9.29273C15.7396 9.12328 15.5057 9.06893 15.263 9.06893C15.1171 9.06893 14.7696 9.08335 14.4981 9.33364C14.3031 9.51419 14.213 9.75919 14.1587 9.99408C14.1038 10.2334 14.0407 10.6643 14.437 10.8246C14.5592 10.8771 14.7354 10.8915 14.8491 10.8915ZM14.8264 10.012C14.8933 9.71593 14.9723 9.46748 15.1739 9.46748C15.3319 9.46748 15.3434 9.65234 15.2731 9.94935C15.2606 10.0153 15.2029 10.2604 15.1249 10.3648C15.0704 10.4418 15.006 10.4885 14.9347 10.4885C14.9135 10.4885 14.7875 10.4885 14.7855 10.3013C14.7845 10.2089 14.8033 10.1145 14.8264 10.012ZM16.6649 10.8534L16.6876 10.8304C16.7197 10.66 16.725 10.6199 16.7962 10.2748C16.8319 10.1112 16.9056 9.75156 16.9402 9.62352C17.0058 9.59308 17.0692 9.56325 17.1328 9.56325C17.2786 9.56325 17.2609 9.6913 17.2551 9.74232C17.2498 9.82809 17.1963 10.1077 17.1405 10.3479L17.1058 10.5029C17.0793 10.6176 17.0505 10.7287 17.025 10.8423L17.0361 10.865C17.3341 10.8491 17.4212 10.8491 17.6763 10.8534L17.7071 10.8304C17.7518 10.5641 17.7639 10.4928 17.8477 10.1054L17.8877 9.92718C17.9675 9.57866 18.0079 9.40205 17.9488 9.25811C17.8833 9.09679 17.7298 9.05785 17.5916 9.05785C17.5001 9.05785 17.3321 9.07991 17.1828 9.1536C17.1295 9.18158 17.076 9.21375 17.0235 9.24603L17.0692 9.06894L17.0447 9.03899C16.7265 9.10357 16.6538 9.1122 16.3601 9.1536L16.3376 9.17C16.3019 9.45308 16.273 9.66579 16.1464 10.2223C16.0982 10.4274 16.0482 10.6344 15.9982 10.839L16.0116 10.865C16.3134 10.8491 16.4035 10.8491 16.6649 10.8534ZM18.8543 10.865C18.873 10.7735 18.9843 10.2315 18.9853 10.2315C18.9853 10.2315 19.0801 9.83382 19.0858 9.8194C19.0858 9.8194 19.1157 9.778 19.1455 9.7616H19.1894C19.6033 9.7616 20.0708 9.7616 20.4372 9.49208C20.6865 9.30722 20.8569 9.03425 20.933 8.70249C20.9527 8.62115 20.9672 8.52441 20.9672 8.42767C20.9672 8.30061 20.9417 8.1749 20.868 8.07668C20.6812 7.81529 20.3091 7.81048 19.8796 7.80851C19.8783 7.80851 19.6679 7.81048 19.6679 7.81048C19.1181 7.81726 18.8977 7.81529 18.8071 7.8042C18.7994 7.84425 18.785 7.91548 18.785 7.91548C18.785 7.91548 18.5881 8.82819 18.5881 8.82967C18.5881 8.82967 18.1168 10.7702 18.0946 10.8616C18.5746 10.8558 18.7715 10.8558 18.8543 10.865ZM19.2192 9.24363C19.2192 9.24363 19.4286 8.33277 19.4276 8.33622L19.4344 8.28951L19.4373 8.2539L19.521 8.26253C19.521 8.26253 19.9528 8.29962 19.9629 8.30061C20.1334 8.36654 20.2036 8.53649 20.1546 8.75832C20.1098 8.96104 19.9783 9.13148 19.8094 9.21381C19.6702 9.28356 19.4998 9.28935 19.3242 9.28935H19.2106L19.2192 9.24363ZM20.5229 10.0288C20.4675 10.2647 20.4039 10.6955 20.7982 10.8491C20.9239 10.9026 21.0365 10.9185 21.151 10.9127C21.2719 10.9062 21.3839 10.8455 21.4877 10.7583C21.4783 10.7941 21.469 10.83 21.4596 10.866L21.4775 10.889C21.761 10.8771 21.849 10.8771 22.1563 10.8794L22.1841 10.8582C22.229 10.5945 22.2713 10.3384 22.3878 9.83386C22.4447 9.59219 22.5013 9.35286 22.5596 9.11217L22.5505 9.08568C22.2333 9.14446 22.1485 9.15703 21.8434 9.20029L21.8202 9.21914C21.8171 9.24367 21.8139 9.26721 21.811 9.29075C21.7635 9.21409 21.6947 9.14865 21.5886 9.10786C21.4529 9.0545 21.1343 9.12326 20.8603 9.3727C20.6678 9.55078 20.5754 9.79479 20.5229 10.0288ZM21.1891 10.0432C21.257 9.75252 21.335 9.50654 21.5371 9.50654C21.6649 9.50654 21.7322 9.62448 21.7185 9.8256C21.7077 9.87576 21.696 9.92863 21.682 9.9884C21.6618 10.0748 21.6399 10.1604 21.6186 10.2462C21.5969 10.3049 21.5716 10.3602 21.5439 10.3971C21.4919 10.4708 21.3682 10.5165 21.2969 10.5165C21.2767 10.5165 21.152 10.5165 21.1477 10.3326C21.1467 10.241 21.1656 10.1468 21.1891 10.0432ZM24.6682 9.08332L24.6437 9.05535C24.3298 9.11894 24.273 9.12904 23.9846 9.16799L23.9634 9.18918C23.9624 9.19263 23.9615 9.19793 23.9601 9.20274L23.9591 9.19793C23.7444 9.69323 23.7507 9.58638 23.5759 9.97631C23.5749 9.95857 23.5749 9.94747 23.574 9.92862L23.5302 9.08332L23.5027 9.05535C23.1739 9.11894 23.1662 9.12904 22.8625 9.16799L22.8388 9.18918C22.8355 9.19929 22.8355 9.21038 22.8335 9.22246L22.8355 9.22677C22.8735 9.42075 22.8643 9.37749 22.9024 9.68362C22.9202 9.83385 22.9438 9.98494 22.9616 10.1333C22.9915 10.3816 23.0083 10.5039 23.0449 10.8829C22.8398 11.2213 22.7913 11.3493 22.5938 11.6463L22.5952 11.6493L22.4562 11.8691C22.4403 11.8923 22.4259 11.9082 22.4056 11.915C22.3835 11.926 22.3546 11.9279 22.3146 11.9279H22.2375L22.1231 12.3087L22.5158 12.3155C22.7464 12.3145 22.8913 12.2067 22.9693 12.0618L23.2163 11.6386H23.2124L23.2384 11.6087C23.4045 11.2511 24.6682 9.08332 24.6682 9.08332ZM20.5228 14.0847H20.3562L20.9729 12.0449H21.1775L21.2424 11.8348L21.2487 12.0685C21.2411 12.2129 21.3547 12.341 21.6532 12.3198H21.9984L22.1172 11.927H21.9873C21.9126 11.927 21.878 11.9081 21.8823 11.8677L21.876 11.63H21.2368V11.6312C21.0301 11.6355 20.4129 11.6511 20.288 11.6843C20.1367 11.7233 19.9774 11.8379 19.9774 11.8379L20.04 11.6275H19.442L19.3174 12.0449L18.6925 14.1158H18.5712L18.4523 14.5058H19.6433L19.6034 14.6358H20.1902L20.2292 14.5058H20.3938L20.5228 14.0847ZM20.0342 12.4594C19.9384 12.4859 19.7602 12.5662 19.7602 12.5662L19.9187 12.0449H20.3938L20.2792 12.4248C20.2792 12.4248 20.1324 12.4334 20.0342 12.4594ZM20.0433 13.2041C20.0433 13.2041 19.8941 13.2229 19.7959 13.245C19.6991 13.2744 19.5177 13.3668 19.5177 13.3668L19.6814 12.8243H20.1589L20.0433 13.2041ZM19.7771 14.0895H19.3006L19.4387 13.6316H19.9138L19.7771 14.0895ZM20.9248 12.8243H21.6117L21.513 13.144H20.817L20.7125 13.4935H21.3215L20.8604 14.1428C20.8281 14.1905 20.7991 14.2074 20.7669 14.2208C20.7346 14.2372 20.6923 14.2565 20.6432 14.2565H20.4742L20.3582 14.6392H20.8001C21.0298 14.6392 21.1655 14.5347 21.2657 14.3976L21.5819 13.9648L21.6498 14.4042C21.6642 14.4866 21.7234 14.5347 21.7634 14.5535C21.8077 14.5757 21.8534 14.6137 21.918 14.6194C21.9872 14.6224 22.0373 14.6247 22.0706 14.6247H22.2877L22.4181 14.1963H22.3324C22.2833 14.1963 22.1986 14.1881 22.1842 14.1727C22.1698 14.1539 22.1698 14.1251 22.162 14.0812L22.0931 13.6408H21.811L21.9347 13.4935H22.6294L22.7363 13.144H22.0931L22.1933 12.8243H22.8345L22.9534 12.4301H21.0418L20.9248 12.8243ZM15.1229 14.1785L15.2833 13.6451H15.9422L16.0626 13.2484H15.4031L15.5037 12.9201H16.1483L16.2677 12.536H14.655L14.538 12.9201H14.9044L14.8067 13.2484H14.4393L14.3176 13.6519H14.6838L14.4701 14.3576C14.4413 14.451 14.4837 14.4866 14.5106 14.53C14.538 14.5722 14.5659 14.6002 14.6285 14.6161C14.6931 14.6305 14.7373 14.6392 14.7975 14.6392H15.5403L15.6727 14.1997L15.3434 14.2449C15.2798 14.2449 15.1037 14.2373 15.1229 14.1785ZM15.1985 11.6251L15.0315 11.9269C14.9958 11.9929 14.9636 12.0338 14.9347 12.0526C14.9092 12.0685 14.8586 12.0752 14.7854 12.0752H14.6983L14.5818 12.4613H14.8712C15.0103 12.4613 15.1172 12.4103 15.1682 12.3848C15.223 12.3554 15.2375 12.3722 15.2799 12.3313L15.3776 12.2466H16.2812L16.4011 11.8446H15.7397L15.8551 11.6251H15.1985ZM16.5325 14.1862C16.5171 14.1641 16.5282 14.125 16.5517 14.0437L16.7987 13.2262H17.6773C17.8053 13.2244 17.8977 13.2229 17.9579 13.2186C18.0225 13.2118 18.0927 13.1887 18.1692 13.1473C18.2482 13.104 18.2887 13.0582 18.3228 13.0057C18.3609 12.9534 18.422 12.8387 18.4745 12.662L18.7849 11.6276L17.8732 11.6329C17.8732 11.6329 17.5925 11.6743 17.4689 11.72C17.3442 11.771 17.166 11.9135 17.166 11.9135L17.2483 11.6299H16.6851L15.8966 14.2449C15.8686 14.3465 15.8499 14.4202 15.8456 14.4644C15.8441 14.5121 15.9057 14.5593 15.9456 14.5949C15.9928 14.6305 16.0626 14.6247 16.1295 14.6305C16.1999 14.6358 16.3 14.6391 16.4381 14.6391H16.8709L17.0038 14.1906L16.6163 14.2272C16.5749 14.2272 16.545 14.205 16.5325 14.1862ZM16.958 12.6741H17.8809L17.8222 12.858C17.8139 12.8623 17.7942 12.8489 17.7003 12.8599H16.9012L16.958 12.6741ZM17.1429 12.0574H18.0735L18.0066 12.2789C18.0066 12.2789 17.568 12.2746 17.4977 12.2875C17.1886 12.341 17.0081 12.5061 17.0081 12.5061L17.1429 12.0574ZM17.8429 13.4737C17.8352 13.5012 17.8231 13.518 17.8063 13.5305C17.7875 13.5426 17.7572 13.5469 17.712 13.5469H17.5805L17.5882 13.323H17.0413L17.0191 14.4177C17.0183 14.4967 17.0259 14.5424 17.0837 14.579C17.1415 14.6248 17.3196 14.6306 17.5593 14.6306H17.902L18.0257 14.2208L17.7274 14.2372L17.6282 14.243C17.6146 14.2372 17.6017 14.2319 17.5873 14.2175C17.5747 14.205 17.5535 14.2127 17.5569 14.1337L17.5593 13.853L17.8722 13.8401C18.0411 13.8401 18.1134 13.7851 18.175 13.7328C18.2338 13.6826 18.253 13.6249 18.2752 13.5469L18.3277 13.2985H17.8977L17.8429 13.4737Z" fill="#FEFEFE"/>
</svg>
