<svg width="44" height="44" viewBox="0 0 44 44" fill="none" xmlns="http://www.w3.org/2000/svg">
<path d="M4 16H40L36.4 39H7.6L4 16Z" stroke="#212121" stroke-width="1.5"/>
<path d="M22 6V16" stroke="#212121" stroke-width="1.5"/>
<path d="M22.4995 21.836C23.1155 21.836 23.6288 21.99 24.0395 22.298C24.4595 22.5967 24.7955 22.9933 25.0475 23.488C25.2995 23.9733 25.4768 24.5287 25.5795 25.154C25.6915 25.7793 25.7475 26.414 25.7475 27.058C25.7475 27.702 25.6915 28.3367 25.5795 28.962C25.4768 29.578 25.2995 30.1333 25.0475 30.628C24.7955 31.1133 24.4595 31.5053 24.0395 31.804C23.6288 32.1027 23.1155 32.252 22.4995 32.252C21.8741 32.252 21.3515 32.1027 20.9315 31.804C20.5208 31.5053 20.1895 31.1133 19.9375 30.628C19.6855 30.1333 19.5081 29.578 19.4055 28.962C19.3028 28.3367 19.2515 27.702 19.2515 27.058C19.2515 26.414 19.3028 25.7793 19.4055 25.154C19.5081 24.5287 19.6855 23.9733 19.9375 23.488C20.1895 22.9933 20.5208 22.5967 20.9315 22.298C21.3515 21.99 21.8741 21.836 22.4995 21.836ZM22.4995 22.69C22.0608 22.69 21.6968 22.8253 21.4075 23.096C21.1181 23.3667 20.8895 23.712 20.7215 24.132C20.5535 24.552 20.4368 25.0233 20.3715 25.546C20.3061 26.0593 20.2735 26.5633 20.2735 27.058C20.2735 27.5527 20.3061 28.0567 20.3715 28.57C20.4368 29.0833 20.5535 29.55 20.7215 29.97C20.8895 30.3807 21.1181 30.7213 21.4075 30.992C21.6968 31.2533 22.0608 31.384 22.4995 31.384C22.9288 31.384 23.2881 31.2533 23.5775 30.992C23.8668 30.7213 24.0955 30.3807 24.2635 29.97C24.4315 29.55 24.5481 29.0833 24.6135 28.57C24.6881 28.0567 24.7255 27.5527 24.7255 27.058C24.7255 26.5633 24.6881 26.0593 24.6135 25.546C24.5481 25.0233 24.4315 24.552 24.2635 24.132C24.0955 23.712 23.8668 23.3667 23.5775 23.096C23.2881 22.8253 22.9288 22.69 22.4995 22.69Z" fill="#212121"/>
</svg>
