<svg width="44" height="44" viewBox="0 0 44 44" fill="none" xmlns="http://www.w3.org/2000/svg">
<g clip-path="url(#clip0_18_405)">
<path d="M42.223 13.3479L37.0839 18.4869C36.0458 30.5216 25.8966 39.875 13.7501 39.875C11.2545 39.875 9.19718 39.4797 7.63483 38.6994C6.37499 38.0686 5.85937 37.3932 5.73046 37.2007C5.61552 37.0283 5.54101 36.8322 5.51252 36.627C5.48403 36.4217 5.50228 36.2127 5.56591 36.0156C5.62954 35.8184 5.7369 35.6381 5.87998 35.4883C6.02306 35.3384 6.19815 35.2229 6.39218 35.1502C6.43686 35.133 10.5584 33.55 13.1761 30.5371C11.7244 29.3435 10.4572 27.9419 9.41546 26.3777C7.28421 23.2135 4.89858 17.7169 5.63421 9.50301C5.65753 9.24201 5.75494 8.99311 5.91497 8.78562C6.075 8.57812 6.291 8.42068 6.53751 8.33183C6.78403 8.24297 7.0508 8.22641 7.30641 8.28409C7.56202 8.34177 7.79583 8.47128 7.9803 8.65739C8.04046 8.71755 13.7003 14.3465 20.62 16.1718V15.125C20.6174 14.0274 20.8344 12.9404 21.2582 11.9279C21.6821 10.9155 22.3043 9.99808 23.0881 9.22973C23.8493 8.46958 24.7551 7.86959 25.752 7.46517C26.7489 7.06075 27.8167 6.8601 28.8923 6.87505C30.3353 6.88928 31.7501 7.27664 32.9991 7.99946C34.248 8.72228 35.2887 9.75598 36.02 11H41.2501C41.5223 10.9998 41.7883 11.0804 42.0146 11.2314C42.2409 11.3825 42.4173 11.5973 42.5215 11.8487C42.6257 12.1001 42.6529 12.3767 42.5998 12.6436C42.5466 12.9105 42.4155 13.1556 42.223 13.3479Z" fill="#212121"/>
</g>
<defs>
<clipPath id="clip0_18_405">
<rect width="44" height="44" fill="white"/>
</clipPath>
</defs>
</svg>
