<svg width="167" height="84" viewBox="0 0 167 84" fill="none" xmlns="http://www.w3.org/2000/svg">
<g clip-path="url(#clip0_1_18)">
<path d="M0 35.2822H7.78933L8.07968 39.6575C11.5739 35.7828 15.3484 33.46 20.4245 33.9106C25.5005 34.3611 29.205 36.744 32.1485 41.1292C34.3039 37.9014 37.5368 35.5451 41.2694 34.4813C51.7219 31.5878 60.3923 37.7752 60.8328 48.9386C61.2433 59.4312 61.0631 69.9637 61.1232 80.4563C61.0958 80.9013 61.0321 81.3433 60.933 81.7779H52.9234V78.9845C52.9234 70.3142 52.9234 61.6338 52.8733 52.9534C52.8093 51.1282 52.5645 49.3138 52.1424 47.5369C51.4316 44.1929 49.4592 42.0303 45.955 41.5297C41.8902 40.989 38.1957 42.3407 36.8842 45.7448C35.567 49.139 34.7998 52.7215 34.6114 56.3574C34.271 63.8464 34.5013 71.3755 34.5013 78.8744V81.7178H26.4317C26.4317 80.7867 26.4317 79.8256 26.4317 78.8744C26.3315 69.7835 26.2514 60.6926 26.1113 51.6018C26.0642 50.3531 25.8761 49.1137 25.5506 47.9073C24.7096 44.6234 23.0176 42.0703 19.3532 41.5297C17.5292 41.2105 15.651 41.4822 13.9923 42.3053C12.3336 43.1283 10.9812 44.4596 10.1321 46.1052C7.97956 50.11 8.05966 54.4852 7.96955 58.8004C7.82938 65.4684 7.96955 72.1464 7.96955 78.8244V81.6978H0.0500783L0 35.2822Z" fill="black"/>
<path d="M158.97 41.2794V35.3523C159.751 35.2522 160.312 35.122 160.873 35.112C162.875 35.112 164.877 35.112 167 35.112V81.7178H158.89V76.9621C155.506 78.8244 152.392 81.2773 148.878 82.3285C136.654 85.9629 124.489 78.7843 121.435 66.1492C119.203 56.8981 120.214 48.0275 126.992 40.6586C128.901 38.5569 131.217 36.8638 133.799 35.6814C136.38 34.4989 139.175 33.8517 142.013 33.7787C144.852 33.7057 147.676 34.2085 150.315 35.2568C152.954 36.305 155.353 37.8769 157.368 39.8777C157.709 40.2081 158.099 40.5385 158.97 41.2794ZM159.17 58.5401C159.17 57.619 159.221 56.6979 159.17 55.7868C158.928 52.6521 157.748 49.6628 155.784 47.2077C153.82 44.7526 151.162 42.9451 148.157 42.0203C141.99 40.2682 136.053 42.4007 132.078 47.7972C127.713 53.7343 127.823 63.0555 132.338 69.4031C133.425 70.9873 134.817 72.3383 136.433 73.3769C138.05 74.4154 139.857 75.1205 141.75 75.4507C143.642 75.7809 145.581 75.7295 147.454 75.2996C149.326 74.8697 151.094 74.0699 152.653 72.9473C157.448 69.4231 159.251 64.357 159.17 58.5601V58.5401Z" fill="black"/>
<path d="M101.812 0H109.741V81.7779H101.812V0Z" fill="black"/>
<path d="M85.3823 35.4224V81.7279H77.643V35.4224H85.3823Z" fill="black"/>
<path d="M81.4075 23.3981C80.6368 23.4211 79.8699 23.2821 79.1564 22.9901C78.4429 22.698 77.7987 22.2593 77.2654 21.7025C76.7322 21.1457 76.3218 20.4831 76.0609 19.7576C75.8 19.0321 75.6943 18.2599 75.7507 17.491C75.8105 15.9851 76.4544 14.5617 77.5459 13.5225C78.6374 12.4834 80.0907 11.9101 81.5977 11.9243C83.1076 11.9501 84.5482 12.5621 85.6151 13.6308C86.6819 14.6995 87.2914 16.1413 87.3146 17.6512C87.3219 18.4215 87.1728 19.1853 86.8765 19.8965C86.5802 20.6076 86.1427 21.2512 85.5905 21.7884C85.0383 22.3256 84.3829 22.7452 83.6639 23.0219C82.945 23.2985 82.1773 23.4265 81.4075 23.3981Z" fill="black"/>
</g>
<defs>
<clipPath id="clip0_1_18">
<rect width="166.8" height="83.16" fill="white" transform="scale(1.0012)"/>
</clipPath>
</defs>
</svg>
